<svg width="23" height="23" viewBox="0 0 23 23" fill="none" xmlns="http://www.w3.org/2000/svg">
<g clip-path="url(#clip0)">
<path d="M13.727 13.1778C13.4722 13.4512 13.1649 13.6706 12.8235 13.8227C12.4821 13.9748 12.1135 14.0566 11.7398 14.0632C11.3661 14.0698 10.9949 14.0011 10.6483 13.8611C10.3018 13.7211 9.98695 13.5127 9.72266 13.2484C9.45837 12.9842 9.25002 12.6693 9.11004 12.3228C8.97005 11.9762 8.90131 11.605 8.9079 11.2313C8.9145 10.8576 8.99629 10.489 9.14842 10.1476C9.30054 9.80623 9.51986 9.49896 9.79331 9.24415M17.2709 16.7218C15.685 17.9306 13.754 18.6003 11.7601 18.6329C5.26591 18.6329 1.55493 11.211 1.55493 11.211C2.70895 9.06036 4.30953 7.18141 6.24932 5.70017L17.2709 16.7218ZM9.81187 4.01167C10.4505 3.86219 11.1043 3.78747 11.7601 3.78901C18.2544 3.78901 21.9653 11.211 21.9653 11.211C21.4022 12.2645 20.7306 13.2564 19.9614 14.1705L9.81187 4.01167Z" stroke="#CED4DA" stroke-width="1.85549" stroke-linecap="round" stroke-linejoin="round"/>
<path d="M1.55493 1.00578L21.9653 21.4162" stroke="#CED4DA" stroke-width="1.85549" stroke-linecap="round" stroke-linejoin="round"/>
</g>
<defs>
<clipPath id="clip0">
<rect width="22.2659" height="22.2659" fill="white" transform="translate(0.627197 0.0780334)"/>
</clipPath>
</defs>
</svg>
