<svg width="100" height="100" viewBox="0 0 100 100" fill="none" xmlns="http://www.w3.org/2000/svg">
<rect width="100" height="100" rx="50" fill="#464646"/>
<path d="M70.4167 47.0833H29.5833C26.3617 47.0833 23.75 49.695 23.75 52.9167V73.3333C23.75 76.555 26.3617 79.1667 29.5833 79.1667H70.4167C73.6383 79.1667 76.25 76.555 76.25 73.3333V52.9167C76.25 49.695 73.6383 47.0833 70.4167 47.0833Z" stroke="white" stroke-width="4" stroke-linecap="round" stroke-linejoin="round"/>
<path d="M35.4166 47.0833V35.4167C35.4166 31.5489 36.9531 27.8396 39.688 25.1047C42.4229 22.3698 46.1322 20.8333 50 20.8333C53.8677 20.8333 57.577 22.3698 60.3119 25.1047C63.0468 27.8396 64.5833 31.5489 64.5833 35.4167V47.0833" stroke="white" stroke-width="4" stroke-linecap="round" stroke-linejoin="round"/>
<path d="M52.9167 59.25L55.8333 56.3333M57.5 54.6667L55.8333 56.3333L57.5 54.6667ZM49.4917 62.675C49.9219 63.0996 50.264 63.605 50.4981 64.1623C50.7322 64.7196 50.8538 65.3177 50.8558 65.9222C50.8579 66.5267 50.7403 67.1256 50.5099 67.6844C50.2795 68.2433 49.9409 68.751 49.5134 69.1785C49.086 69.6059 48.5783 69.9445 48.0194 70.1749C47.4606 70.4053 46.8617 70.5229 46.2572 70.5209C45.6527 70.5188 45.0546 70.3973 44.4973 70.1631C43.94 69.929 43.4345 69.5869 43.01 69.1567C42.1751 68.2922 41.7131 67.1345 41.7236 65.9327C41.734 64.731 42.216 63.5814 43.0658 62.7317C43.9156 61.8819 45.0652 61.3999 46.2669 61.3894C47.4686 61.379 48.6264 61.8409 49.4908 62.6758L49.4917 62.675ZM49.4917 62.675L52.9167 59.25L49.4917 62.675ZM52.9167 59.25L55.4167 61.75L58.3333 58.8333L55.8333 56.3333L52.9167 59.25Z" stroke="white" stroke-width="2.5" stroke-linecap="round" stroke-linejoin="round"/>
</svg>
